<?xml version="1.0" encoding="UTF-8"?>
<svg xmlns="http://www.w3.org/2000/svg" width="32" height="32" viewBox="0 0 32 32">
  <!-- Main Wizard Hat Body -->
  <path d="M16 4.8
           L8 24
           C8 24, 11.2 20.8, 16 20.8
           C20.8 20.8, 24 24, 24 24
           L16 4.8" 
        fill="#6366f1" />

  <!-- Hat Band -->
  <path d="M8 24
           C8 24, 11.2 21.8, 16 21.8
           C20.8 21.8, 24 24, 24 24
           L25 26.2
           C25 26.2, 20.8 24.6, 16 24.6
           C11.2 24.6, 7 26.2, 7 26.2
           L8 24" 
        fill="#4f46e5" />

  <!-- Hat Brim -->
  <path d="M4.8 26.2
           Q8 24.9, 16 24.9
           Q24 24.9, 27.2 26.2
           Q28.8 27.2, 27.2 28.1
           Q24 27.2, 16 27.2
           Q8 27.2, 4.8 28.1
           Q3.2 27.2, 4.8 26.2" 
        fill="#4338ca" />

  <!-- Centered Letter Q -->
  <path d="M16 14.4
           A 2.6 2.6 0 1 1 16 19.6
           A 2.6 2.6 0 1 1 16 14.4
           M18.6 18.2
           L19.5 19.1" 
        fill="none" 
        stroke="white" 
        stroke-width="1"/>
</svg>